<svg class="{class}" width="25" height="25" viewBox="0 0 25 25" fill="none" xmlns="http://www.w3.org/2000/svg">
<g clip-path="url(#clip0_19_59)">
<path d="M12.5 0C5.60706 0 0 5.60761 0 12.5C0 19.3924 5.60706 25 12.5 25C19.3929 25 25 19.3924 25 12.5C25 5.60761 19.3929 0 12.5 0ZM10.3261 4.34783H11.4131V5.97828H12.5V4.34783H13.5869V5.98678C14.7087 6.03678 17.3372 6.41161 17.3372 9.185C17.3372 11.4133 15.4343 12.0113 15.0539 12.12V12.1741C15.8692 12.2828 17.8265 13.0431 17.8265 15.3257C17.8265 18.6289 14.8375 18.9822 13.5869 19.0175V20.6522H12.5V19.0217H11.4131V20.6522H10.3261V19.0217H7.60872V5.97828H10.3261V4.34783ZM8.85911 7.01106V11.6848H13.1517C13.6409 11.6848 14.0759 11.63 14.4563 11.5213C14.8367 11.4126 15.1091 11.2504 15.3808 11.0331C15.5983 10.8157 15.8157 10.5978 15.9243 10.3261C16.0331 10.0543 16.0867 9.78283 16.0867 9.45672C16.0867 7.82628 15.1083 7.01106 13.1517 7.01106H8.85911ZM8.85911 12.7717V17.9889H13.1517C13.6409 17.9889 14.0759 17.935 14.4563 17.8807C14.8911 17.8263 15.2172 17.6628 15.5433 17.4454C15.8693 17.2281 16.0869 16.9563 16.3043 16.6302C16.4674 16.3041 16.5761 15.8692 16.5761 15.3257C16.5761 14.5104 16.3046 13.8583 15.7067 13.4235C15.1089 12.9887 14.2387 12.7717 13.1517 12.7717H8.85911Z" fill="#FFC700"/>
</g>
<defs>
<clipPath id="clip0_19_59">
<rect width="25" height="25" fill="white"/>
</clipPath>
</defs>
</svg>
