<svg class="{class}" width="26" height="26" viewBox="0 0 26 26" fill="none" xmlns="http://www.w3.org/2000/svg">
<path class="back" d="M18.4254 0.499756H7.58787C3.35037 0.499756 0.500366 3.47476 0.500366 7.89976V18.1123C0.500366 22.5248 3.35037 25.4998 7.58787 25.4998H18.4254C22.6629 25.4998 25.5004 22.5248 25.5004 18.1123V7.89976C25.5004 3.47476 22.6629 0.499756 18.4254 0.499756Z" fill="#FFC700"/>
<path d="M11.1273 18C10.7737 18 10.4202 17.8692 10.1503 17.6059L6.40485 13.9532C5.86505 13.4268 5.86505 12.574 6.40485 12.0491C6.94464 11.5227 7.81747 11.5211 8.35727 12.0476L11.1273 14.749L17.6427 8.39483C18.1825 7.86839 19.0554 7.86839 19.5952 8.39483C20.1349 8.92127 20.1349 9.77403 19.5952 10.3005L12.1043 17.6059C11.8344 17.8692 11.4808 18 11.1273 18Z" fill="#222222"/>
</svg>
