<svg class="{class}" width="25" height="25" viewBox="0 0 25 25" fill="none" xmlns="http://www.w3.org/2000/svg">
<g clip-path="url(#clip0_19_63)">
<path d="M8.17306 0C3.65962 0 0 3.65962 0 8.17306C0 12.2048 2.92139 15.5464 6.76083 16.2166C6.84639 14.7906 7.22433 13.4447 7.84067 12.2389C6.23011 11.8899 5.22928 10.9553 4.86967 9.51394H3.91752V8.55617H4.73069C4.71916 8.43311 4.71192 8.30867 4.71192 8.17306C4.71192 8.06633 4.71741 7.95856 4.72318 7.85756H3.91752V6.90544H4.85464C5.29407 5.01216 6.80894 3.94757 9.36183 3.94757C9.78394 3.94757 10.2131 3.99307 10.4718 4.05461V5.711C10.1785 5.66006 9.84633 5.63778 9.40695 5.63778C8.25789 5.63778 7.44067 6.08333 7.04067 6.90544H10.0323V7.85756H6.78711C6.77556 7.95856 6.76833 8.0665 6.76833 8.16745C6.76833 8.303 6.7745 8.43217 6.79089 8.55617H10.0304V9.375C11.6843 7.86633 13.8358 6.90411 16.2147 6.76083C15.5454 2.92236 12.2048 0 8.17306 0ZM21.1538 0L18.2692 2.88462L21.1538 5.76922V3.84616H24.0384V1.92308H21.1538V0ZM16.8269 8.65383C12.3134 8.65383 8.65383 12.3134 8.65383 16.8269C8.65383 21.3404 12.3134 25 16.8269 25C21.3404 25 25 21.3404 25 16.8269C25 12.3134 21.3404 8.65383 16.8269 8.65383ZM7.08383 9.51394C7.41461 10.1572 8.02906 10.5413 8.84539 10.6596C9.16078 10.2519 9.50522 9.86878 9.87833 9.51394H7.08383ZM16.3462 11.5384H17.3077V12.5338C18.9606 12.6973 20.0752 13.6742 20.1059 15.0597H18.1772C18.132 14.4789 17.5803 14.0757 16.8457 14.0757C16.1111 14.0757 15.6288 14.4234 15.6288 14.9696C15.6288 15.4186 15.9926 15.6802 16.8569 15.8503L17.9162 16.0551C19.5373 16.3685 20.2656 17.1034 20.2656 18.4063C20.2656 19.9794 19.1538 20.9691 17.3077 21.1219V22.1154H16.3462V21.1257C14.5433 20.9872 13.42 20.0537 13.3883 18.5941H15.379C15.4299 19.1912 16.0282 19.5726 16.8927 19.5726C17.6724 19.5726 18.2073 19.1965 18.2073 18.6561C18.2073 18.2013 17.848 17.9553 16.9096 17.7678L15.8297 17.5518C14.3278 17.2672 13.5536 16.4487 13.5536 15.1574C13.5536 13.6862 14.6413 12.6896 16.3462 12.5319V11.5384ZM3.84616 18.2692V20.1923H0.961539V22.1154H3.84616V24.0384L6.73078 21.1538L3.84616 18.2692Z" fill="#FFC700"/>
</g>
<defs>
<clipPath id="clip0_19_63">
<rect width="25" height="25" fill="white"/>
</clipPath>
</defs>
</svg>
