<svg class="{class}" width="25" height="25" viewBox="0 0 25 25" fill="none" xmlns="http://www.w3.org/2000/svg">
<g clip-path="url(#clip0_19_67)">
<path d="M12.5 0C5.60761 0 0 5.60761 0 12.5C0 19.3924 5.60761 25 12.5 25C19.3924 25 25 19.3924 25 12.5C25 5.60761 19.3924 0 12.5 0ZM12.5 4.89131C14.0804 4.89131 15.3956 5.96606 15.6972 7.50467C15.7548 7.79922 15.5629 8.08444 15.2683 8.14261C14.9732 8.19861 14.6886 8.00833 14.6304 7.71378C14.4304 6.69206 13.5538 5.97828 12.5 5.97828C11.281 5.97828 10.3261 6.93317 10.3261 8.15217V9.23911H9.23911V8.15217C9.23911 6.32389 10.6717 4.89131 12.5 4.89131ZM8.69567 10.3261H9.23911H10.3261H14.6739H15.7609H16.3043C16.9022 10.3261 17.3913 10.8152 17.3913 11.4131V16.8478C17.3913 17.4457 16.9022 17.9348 16.3043 17.9348H8.69567C8.09783 17.9348 7.60872 17.4457 7.60872 16.8478V11.4131C7.60872 10.8152 8.09783 10.3261 8.69567 10.3261ZM12.5 12.5C12.2117 12.5 11.9352 12.6145 11.7314 12.8184C11.5276 13.0222 11.4131 13.2987 11.4131 13.5869C11.4132 13.7776 11.4635 13.9649 11.5589 14.1299C11.6543 14.295 11.7914 14.4321 11.9565 14.5274V15.2174C11.9565 15.5435 12.1739 15.7609 12.5 15.7609C12.8261 15.7609 13.0435 15.5435 13.0435 15.2174V14.5264C13.2084 14.4311 13.3454 14.2942 13.4408 14.1293C13.5362 13.9645 13.5866 13.7774 13.5869 13.5869C13.5869 13.2987 13.4724 13.0222 13.2686 12.8184C13.0647 12.6145 12.7883 12.5 12.5 12.5Z" fill="#FFC700"/>
</g>
<defs>
<clipPath id="clip0_19_67">
<rect width="25" height="25" fill="white"/>
</clipPath>
</defs>
</svg>
