<svg width="19" height="19" viewBox="0 0 19 19" fill="none" xmlns="http://www.w3.org/2000/svg">
<path fill-rule="evenodd" clip-rule="evenodd" d="M9.37697 17.1488C6.45428 17.1488 3.95837 16.694 3.95837 14.8725C3.95837 13.0511 6.43845 11.3696 9.37697 11.3696C12.2997 11.3696 14.7956 13.0348 14.7956 14.8562C14.7956 16.677 12.3155 17.1488 9.37697 17.1488Z" stroke="#666666" stroke-linecap="round" stroke-linejoin="round"/>
<path fill-rule="evenodd" clip-rule="evenodd" d="M9.37123 8.8457C11.2892 8.8457 12.8438 7.29115 12.8438 5.37316C12.8438 3.45517 11.2892 1.8999 9.37123 1.8999C7.45323 1.8999 5.89797 3.45517 5.89797 5.37316C5.89149 7.28468 7.43524 8.83922 9.34676 8.8457C9.35539 8.8457 9.36331 8.8457 9.37123 8.8457Z" stroke="#666666" stroke-linecap="round" stroke-linejoin="round"/>
</svg>
