<svg class="{class}" width="26" height="26" viewBox="0 0 26 26" fill="none" xmlns="http://www.w3.org/2000/svg">
<path class="back" d="M18.4254 0.5H7.58787C3.35037 0.5 0.500366 3.475 0.500366 7.9V18.1125C0.500366 22.525 3.35037 25.5 7.58787 25.5H18.4254C22.6629 25.5 25.5004 22.525 25.5004 18.1125V7.9C25.5004 3.475 22.6629 0.5 18.4254 0.5Z" fill="#FFC700"/>
<path d="M13.292 19.288C16.496 19.288 18.584 17.488 18.584 14.734C18.584 12.484 17.018 11.044 14.858 10.864L17.72 8.776V6.4H8.828V9.442H13.454L10.484 11.8L11.51 13.6C12.086 13.276 12.644 13.096 13.22 13.096C14.444 13.096 15.038 13.744 15.038 14.626C15.038 15.634 14.3 16.174 13.184 16.174C12.338 16.174 11.762 15.832 11.384 15.148L8.216 15.778C8.954 18.1 10.664 19.288 13.292 19.288Z" fill="#222222"/>
</svg>
