<svg class="{class}" width="26" height="26" viewBox="0 0 26 26" fill="none" xmlns="http://www.w3.org/2000/svg">
<path class="back" d="M18.4254 0.5H7.58787C3.35037 0.5 0.500366 3.475 0.500366 7.9V18.1125C0.500366 22.525 3.35037 25.5 7.58787 25.5H18.4254C22.6629 25.5 25.5004 22.525 25.5004 18.1125V7.9C25.5004 3.475 22.6629 0.5 18.4254 0.5Z" fill="#FFC700"/>
<path d="M8.288 19H18.098V15.976H13.67C15.632 14.662 17.9 12.682 17.9 10.126C17.9 7.768 15.848 6.112 13.058 6.112C10.34 6.112 8.414 7.714 8.126 10.36L11.636 10.918C11.762 9.64 12.464 9.208 13.202 9.208C13.904 9.208 14.354 9.586 14.354 10.234C14.354 11.116 13.724 12.07 12.86 13.042C11.6 14.464 9.872 15.778 8.288 16.642V19Z" fill="#222222"/>
</svg>
